<svg fill="#7e22ce" height="64px" width="64px" version="1.1" xmlns="http://www.w3.org/2000/svg" viewBox="0 0 512 512" xmlns:xlink="http://www.w3.org/1999/xlink" enable-background="new 0 0 512 512" stroke="#7e22ce"><g id="SVGRepo_bgCarrier" stroke-width="0"></g><g id="SVGRepo_tracerCarrier" stroke-linecap="round" stroke-linejoin="round"></g><g id="SVGRepo_iconCarrier"> <g> <g> <path d="m495.3,206.3c-7.8-8.2-20.7-8.6-28.8-0.8l-131.4,123.9h-303.6c-11.3,0-20.4,9.1-20.4,20.4 0,83.3 67.8,151.1 151.1,151.1h50.6c80.3,0 146-63 150.7-142.2l131-123.6c8.2-7.7 8.6-20.6 0.8-28.8z"></path> <path d="m97.6,93.6c-11.3,0-20.4,9.1-20.4,20.4v120.5c0,11.3 9.1,20.4 20.4,20.4 11.3,0 20.4-9.1 20.4-20.4v-120.5c0-11.3-9.1-20.4-20.4-20.4z"></path> <path d="m271.1,93.6c-11.3,0-20.4,9.1-20.4,20.4v120.5c0,11.3 9.1,20.4 20.4,20.4 11.3,0 20.4-9.1 20.4-20.4v-120.5c0-11.3-9.1-20.4-20.4-20.4z"></path> <path d="m184.4,11.1c-11.3,0-20.4,9.1-20.4,20.4v122c0,11.3 9.1,20.4 20.4,20.4 11.3,0 20.4-9.1 20.4-20.4v-122c0-11.3-9.2-20.4-20.4-20.4v-1.77636e-15z"></path> </g> </g> </g></svg>